<?xml version="1.0" encoding="utf-8"?>
<!-- Generator: Adobe Illustrator 17.0.0, SVG Export Plug-In . SVG Version: 6.00 Build 0)  -->
<!DOCTYPE svg PUBLIC "-//W3C//DTD SVG 1.1//EN" "http://www.w3.org/Graphics/SVG/1.1/DTD/svg11.dtd">
<svg version="1.1" id="Layer_1" xmlns="http://www.w3.org/2000/svg" xmlns:xlink="http://www.w3.org/1999/xlink" x="0px" y="0px"
	 width="192px" height="36px" viewBox="0 0 192 36" enable-background="new 0 0 192 36" xml:space="preserve">
<rect x="0.085" fill="#FFFFFF" width="98" height="36"/>
<g>
	<path d="M27.149,6.371V23c0,2.643-0.846,4.736-2.538,6.28c-1.692,1.544-3.945,2.315-6.759,2.315c-2.849,0-5.11-0.761-6.785-2.281
		c-1.675-1.521-2.512-3.632-2.512-6.332V6.371h4.307v16.646c0,1.663,0.421,2.935,1.265,3.812c0.843,0.877,2.085,1.315,3.726,1.315
		c3.327,0,4.99-1.755,4.99-5.264V6.371H27.149z"/>
	<path d="M31.763,31.254V6.371h8.528c2.814,0,4.956,0.564,6.426,1.691c1.47,1.129,2.205,2.809,2.205,5.042
		c0,1.14-0.308,2.165-0.923,3.076s-1.516,1.618-2.7,2.119c1.344,0.364,2.384,1.051,3.119,2.06c0.734,1.008,1.102,2.219,1.102,3.631
		c0,2.336-0.75,4.131-2.248,5.384s-3.643,1.88-6.434,1.88H31.763z M36.087,16.848h4.238c1.344,0,2.395-0.305,3.153-0.915
		c0.758-0.608,1.137-1.472,1.137-2.589c0-1.23-0.351-2.119-1.051-2.666c-0.701-0.547-1.792-0.82-3.273-0.82h-4.204V16.848z
		 M36.087,20.025v7.776h4.802c1.355,0,2.415-0.336,3.179-1.009c0.763-0.672,1.145-1.605,1.145-2.803
		c0-2.586-1.322-3.907-3.965-3.965H36.087z"/>
	<path d="M68.387,20.146h-10.22v7.656h11.946v3.452h-16.27V6.371h16.15v3.486H58.167v6.87h10.22V20.146z"/>
	<path d="M82.776,21.684h-4.819v9.57h-4.324V6.371h8.75c2.871,0,5.087,0.645,6.647,1.933c1.561,1.289,2.342,3.153,2.342,5.593
		c0,1.666-0.401,3.06-1.205,4.183c-0.803,1.123-1.923,1.987-3.358,2.591l5.589,10.362v0.222h-4.632L82.776,21.684z M77.957,18.197
		H82.4c1.458,0,2.598-0.367,3.418-1.103c0.82-0.734,1.23-1.739,1.23-3.017c0-1.332-0.379-2.363-1.136-3.093
		c-0.758-0.729-1.889-1.104-3.393-1.128h-4.563V18.197z"/>
</g>
<g>
	<path fill="#FFFFFF" d="M119.402,25.461h-9.639l-2.017,5.793h-4.494l9.399-24.883h3.879l9.417,24.883h-4.512L119.402,25.461z
		 M110.977,21.975h7.212l-3.606-10.322L110.977,21.975z"/>
	<path fill="#FFFFFF" d="M146.677,6.371V23c0,2.643-0.846,4.736-2.537,6.28c-1.692,1.544-3.945,2.315-6.76,2.315
		c-2.849,0-5.109-0.761-6.784-2.281c-1.675-1.521-2.513-3.632-2.513-6.332V6.371h4.307v16.646c0,1.663,0.422,2.935,1.265,3.812
		s2.085,1.315,3.726,1.315c3.327,0,4.99-1.755,4.99-5.264V6.371H146.677z"/>
	<path fill="#FFFFFF" d="M169.27,9.857h-7.759v21.396h-4.289V9.857h-7.69V6.371h19.738V9.857z"/>
	<path fill="#FFFFFF" d="M191.915,19.462c0,2.438-0.422,4.577-1.265,6.417c-0.844,1.84-2.049,3.254-3.614,4.238
		c-1.567,0.986-3.37,1.479-5.409,1.479c-2.017,0-3.814-0.492-5.392-1.479c-1.579-0.984-2.798-2.389-3.657-4.213
		c-0.861-1.822-1.297-3.924-1.308-6.306v-1.401c0-2.427,0.43-4.568,1.29-6.426s2.073-3.278,3.641-4.264
		c1.565-0.985,3.363-1.479,5.392-1.479c2.027,0,3.825,0.487,5.392,1.461c1.566,0.975,2.777,2.376,3.632,4.204
		c0.854,1.829,1.287,3.956,1.299,6.384V19.462z M187.59,18.163c0-2.757-0.521-4.87-1.563-6.341
		c-1.042-1.469-2.521-2.204-4.435-2.204c-1.869,0-3.33,0.732-4.384,2.196s-1.593,3.535-1.615,6.212v1.436
		c0,2.734,0.532,4.849,1.599,6.341c1.064,1.492,2.543,2.238,4.435,2.238c1.914,0,3.386-0.729,4.418-2.188
		c1.03-1.458,1.546-3.589,1.546-6.392V18.163z"/>
</g>
</svg>
